<?xml version="1.0" encoding="utf-8"?>
<!-- Generator: Adobe Illustrator 19.0.0, SVG Export Plug-In . SVG Version: 6.00 Build 0)  -->
<svg version="1.1" id="Layer_1" xmlns="http://www.w3.org/2000/svg" xmlns:xlink="http://www.w3.org/1999/xlink" x="0px" y="0px"
	 viewBox="-101 343.9 595.3 114.1" style="enable-background:new -101 343.9 595.3 114.1;" xml:space="preserve">
<g>
	<path d="M42.7,430.2c-4.1,1.3-6.2-0.2-6.9-1.7c0.8-0.7,2.6-2.2,7-5c2.1-1.3,5.1-3.1,9.1-5.3C49.3,424.6,46.7,428.9,42.7,430.2z
		 M145.3,414.7c3.3-9.6,5.6-33.6,5.6-33.6l-11.1,2.4c0,0-2.9,27.5-11,39.7c-3,4.5-6.9,6.7-9.3,4.6c-4.3-3.8-1.6-21.4-1.6-21.4
		l-9.9,2.5c-0.6,5.7-1.3,8.4-2.6,12.3c-1.2,3.5-3,7.1-6.7,8.6c-12.2,4.9-8.3-12.7-7-18.5c1-4.8,2.2-9.5,3.6-14.2
		c0.8-2.7,4.1-14.3,4.5-15.8L89,383.2l-1.4,0.2c-5.4,4.8-14.7,10.5-23.7,15.8c-0.1-7.9-1.5-15.8-4.7-19.6c-2-2.4-4.2-2.9-5.8-3
		c-3.5-0.1-6.2,1.9-12.3,6.2c-7.5,5.5-21.5,15.6-48.1,29.8c-50.6,27.2-84.1,13.4-84.4,13.3l-4.3,9.8c0.8,0.3,10.9,4.6,28.1,4.6
		c16.3,0,38.8-3.8,65.9-18.2c27.3-14.5,41.6-25,49.4-30.6c1.5-1.1,3.1-2.3,4.3-3.1c1,3.3,1.8,9.9,1.1,17.1c-1.3,0.8-2.6,1.5-3.9,2.2
		c-4.9,2.7-9.1,5.1-12,6.9c-4.1,2.5-13.3,8.2-9.5,17.6c2.6,6.3,9.9,9.3,17.7,6.8c6.3-2.1,14.3-8.4,17.6-26.7
		c7.4-4.2,12.7-7.3,19.3-11.9l-0.3,0.8c-1.6,4.9-2.4,8.8-2.9,12.1c-0.6,4.2-0.9,8.3-0.5,11c1.1,6.9,4.2,11.1,7.1,13.1
		c2.8,1.9,6.1,2.8,9.1,2.8c4.4,0,9.7-1.1,12.6-4.7c0.6-0.8,1.2-1.6,1.7-2.5c-0.2,0.4,1.8,2.8,2.1,3.2c3,3.6,7.7,4.4,12.4,3.6
		c4.7-0.9,9.4-3.9,11.3-6.1c1.9-2.1,1.9-2,4.3-5.8C141.5,424.2,143.5,419.8,145.3,414.7z"/>
</g>
<g>
	<path d="M175.8,436.4c-0.4-0.2-1.6-0.6-2-3.2c3.6-2.7,9.4-7.9,12.5-10.6c1.6-1.4,3.3-2.9,4-5c1.1-3.3-1.1-6.6-4.1-7.6
		c-2.8-1-5.7-0.4-8.2,1c-0.6,0.4-1.4,0.9-1.9,1.3c-3.9,3.3-7.4,9.8-7.4,18c0,0,0.2,4,0.6,5.7c0.4,1.7,3.2,4.6,4.8,5.2
		c1.1,0.4,2.2,0.6,3.6,0.6c7,0,11.2-4.2,15.4-8.5l-0.3-5.9C183.1,435.8,178.7,437.6,175.8,436.4z M178.7,416.2
		c4.4-4.1,6.7,0.5,6.7,0.5s-0.5,0.6-2.3,2.2c-1.8,1.7-5.9,5.7-9.4,8.8C174.2,422.7,176.5,418.3,178.7,416.2z"/>
	<path d="M488.4,426.9c-9.5,8.3-13.9,10.1-16.8,8.9c-0.4-0.2-1.6-0.6-2-3.2c3.6-2.7,9.4-7.9,12.5-10.6c1.6-1.4,3.3-2.9,4-5
		c1.1-3.3-1.1-6.6-4.1-7.6c-2.8-1-5.7-0.4-8.2,1c-0.6,0.4-1.4,0.9-1.9,1.3c-3.9,3.3-7.4,9.8-7.4,18c0,0,0,0,0,0l0,0
		c-1.7,1.7-3.7,3.2-6.6,4.7c-3.5,1.9-7.2,2-10.9,1.3c-4.9-0.9-6.8-4.1-5.8-9c0.6-2.9,2.2-5.1,4.5-7c2.9-2.3,6.3-3.1,9.9-3.4
		l-0.8-5.9c-7.9,1-13.9,4.7-17.9,11.8c-1.3,3.1-1.6,5.9-1.3,8.4c-0.1,0.1-0.2,0.2-0.3,0.3c-3.7,2.6-7.1,4.7-8.3,4.8
		c-0.1-0.1-0.1-0.3-0.1-0.6c-0.1-1.4,0.5-5.5,3.2-15.4c0.1-0.3,0.2-0.9,0.4-1.2c0.5-1.7,1.1-3.7,1.1-5.5c-0.1-1.1-0.3-2.1-1-2.9
		c-0.7-0.8-2-1.7-4.3-1.3l-0.3,0.1c-4.6,1.2-12,2.7-12.6,2.9c-0.3-0.3-0.6-0.5-0.8-0.7c-1.7-1.5-4.3-2.5-6.6-2.2
		c-2.1,0.3-4.2,2.1-4.3,4.2c-0.3,3.3,4.1,4,6.6,4.2c0.1,0,0.1,0,0.1,0c0.1,0,0.1,0,0.2,0c-1,16.7-8.2,19.3-11.8,18.1
		c-1.2-1.1-1.6-2.2-2.5-4.1c-6.4,5.1-9.8,6.1-12.3,5.1c-0.4-0.2-1.6-0.6-2-3.2c3.6-2.7,9.4-7.9,12.5-10.6c1.6-1.4,3.3-2.9,4-5
		c1.1-3.3-1.1-6.6-4.1-7.6c-2.8-1-5.7-0.4-8.2,1c-0.6,0.4-1.4,0.9-1.9,1.3c-3.9,3.3-7.4,9.8-7.4,18c0,0,0,0,0,0l-0.5,0.3
		c-0.4,0.3-0.9,0.6-1.3,0.9c-2.3,1.6-5,2.6-7,3.2c1.3-4.3,2.9-9.3,3-10c0.1-1.2,0.3-3.4,0.1-5.9c-0.2-2.5-2.3-6-3.9-7.1
		c-1.5-1-3.3-1.5-4.9-1.5c-2.4,0-5.2,0.6-6.8,2.5c-0.3,0.4-0.6,0.9-0.9,1.3c0.1-0.2-1-1.5-1.1-1.7c-1.6-1.9-4.1-2.4-6.6-2
		c-2.5,0.5-4.5,1.6-6.1,3.2c-0.2-0.5-0.3-0.9-0.5-1.2c-1-1.3-2.4-2.1-4.2-2.3c-0.2,0-0.3,0-0.5,0c-0.9,0-2.3,0.3-3.8,0.8
		c-1.6,0.5-3.4,1.2-5,1.8c-0.4-0.5-0.8-0.8-1.1-1.1c-1.5-1-3.3-1.5-4.9-1.5c-2.4,0-5.2,0.6-6.8,2.5c-0.3,0.4-0.6,0.9-0.9,1.3
		c0.1-0.2-1-1.5-1.1-1.7c-1.6-1.9-4.1-2.4-6.6-2c-2.5,0.5-4.5,1.6-6.1,3.2c-0.2-0.5-0.3-0.9-0.5-1.2c-1-1.3-2.4-2.1-4.2-2.3
		c-0.2,0-0.3,0-0.5,0c-0.9,0-2.3,0.3-3.8,0.8c-1.6,0.5-3.3,1.1-4.9,1.8c-1.4-1.1-3.2-1.7-5.3-1.9c-8.8-0.9-15.3,2.7-20,10
		c-3.6,5.5-8.2,10-14,13.1c-3.5,1.9-7.2,2-10.9,1.3c-4.9-0.9-6.8-4.1-5.8-9c0.6-2.9,2.2-5.1,4.5-7c2.9-2.3,6.3-3.1,9.9-3.4l-0.8-5.9
		c-7.9,1-13.9,4.7-17.9,11.8c-3.6,6.3-7.7,12.5-15.8,14l0.7,5.4c1.4,0.1,2.7-0.3,4-0.7c3.3-1.2,6-3.4,8.4-5.9
		c0.8-0.8,1.4-1.8,2.5-0.1c4,6.3,10.3,7.4,17,6.5c5.6-0.7,9.9-3.9,14.1-7.4c1.3-1.1,2-1.7,2.8,0.5c1.7,4.8,5.5,7,10.3,7.1
		c8.6,0.3,15.2-3.3,19.2-11c1.8-3.7,2.3-7.7,1.1-12.1c-0.1-0.3-0.2-0.6-0.4-0.9c2.3-1,4.1-1.7,4.9-1.7c0.1,0.2,0.7,3.3,0.9,5.9
		c-0.3,0.9-0.6,1.7-0.9,2.5c-1.8,5.1-3.1,18-3.1,18l5.9-1.3c0,0,1.6-14.7,6-21.2c1.6-2.4,3.7-3.6,5-2.4c2.3,2,0.8,11.5,0.8,11.5
		l5.3-1.3c0.3-3.1,0.7-4.5,1.4-6.6c0.6-1.9,1.6-3.8,3.6-4.6c6.5-2.6,4.4,6.8,3.7,9.9c-0.5,2.6-1.2,5.1-2,7.6
		c-0.4,1.4-2.2,7.6-2.4,8.5l6.5-1.2c0.2-0.7,4.7-14.8,4.8-15.9c0.1-1.2,0.3-3.4,0.1-5.9c0-0.4-0.1-0.8-0.2-1.2
		c2.7-1.2,5-2.1,5.9-2.1c0.1,0.2,0.7,3.3,0.9,5.9c-0.3,0.9-0.6,1.7-0.9,2.5c-1.8,5.1-3.1,18-3.1,18l5.9-1.3c0,0,1.6-14.7,6-21.2
		c1.6-2.4,3.7-3.6,5-2.4c2.3,2,0.8,11.5,0.8,11.5l5.3-1.3c0.3-3.1,0.7-4.5,1.4-6.6c0.6-1.9,1.6-3.8,3.6-4.6c6.5-2.6,4.4,6.8,3.7,9.9
		c-0.5,2.6-1.2,5.1-2,7.6c-0.4,1.4-2.2,7.6-2.4,8.5l6.5-1.2c0,0,0,0,0,0c3.6-0.7,10.5-4.1,11.2-4.5c0.6,1.7,3.2,4.3,4.7,5
		c1.1,0.4,2.2,0.6,3.6,0.6c3.4,0,6.1-1,8.6-2.5c0.7,0.9,1.9,1.6,3.5,1.8c7.2,1.1,14.1-3.9,16.3-13.1c1.2-4.9,2-10.4,2.1-11
		c2.1-0.2,6.8-1.4,12.4-2.9c-0.2,0.9-0.5,2.2-0.7,2.8c-0.1,0.4-0.3,0.9-0.4,1.2c-2.2,8.2-3.7,14-3.4,17.7c0.1,1.2,0.4,2.2,0.9,3
		c0.9,1.3,2.1,2.2,3.6,2.4c2.4,0.3,9.3-4.2,11.1-5.3c4,5.4,9.9,6.3,16.3,5.5c4.4-0.6,8.2-3,11.6-5.7c0.6,1.7,3.2,4.3,4.7,4.9
		c1.1,0.4,2.2,0.6,3.6,0.6c7,0,11.2-4.2,15.4-8.5L488.4,426.9z M474.5,415.6c4.4-4.1,6.7,0.5,6.7,0.5s-0.5,0.6-2.3,2.2
		c-1.8,1.7-5.9,5.7-9.4,8.8C470,422.1,472.3,417.6,474.5,415.6z M384.5,416.1c4.4-4.1,6.7,0.5,6.7,0.5s-0.5,0.6-2.3,2.2
		c-1.8,1.7-5.9,5.7-9.4,8.8C380,422.6,382.2,418.2,384.5,416.1z M281.9,423.7c-1,7-6.7,11.9-13.7,11.9c-5.9,0-8.6-4.1-6.6-9.8
		c2-5.6,8.3-9.9,14.2-9.7C279.9,416.3,282.6,419.5,281.9,423.7z M404.7,413c-0.2-0.2,0.3-0.6,0.4-0.7c0.8-0.7,2.2-1,3.1-0.2
		c0.6,0.5,1.1,1.2,1.1,1.2C407.9,413.6,404.8,413.2,404.7,413z"/>
	<path d="M217.6,421.5l-0.2-5.3c-0.8,0.1-1.7,0.2-2.5,0.2c-6.5-0.1-12.9,0.3-19.4-0.2l-0.3,5.4c0.4,0,0.8,0,1.2,0c3.5,0,7,0,10.4,0
		C210.5,421.5,214,421.5,217.6,421.5z"/>
</g>
</svg>
